Patient4_TMGait_0pt4_03_right_33_EMG.mot
version=1
nRows=19
nColumns=33
inDegrees=no
endheader
time	1LAddLong	2LGlutMax	3LGlutMed	4LIliopsoas	5LSemiMemb	6LBicFemLong	7LRecFem	8LVastMed	9LVastLat	10LGasMed	11LTibAnt	12lTibPost	13LPeroneusLong	14LSol	15LExtDigLong	16LFlexDigLong	17RAddLong	18RGlutMax	19RGlutMed	20RIliopsoas	21RSemiMemb	22RBicFemLong	23RRecFem	24RVastMed	25RVastLat	26RGasMed	27RTibAnt	28RTibPost	29RPeroneusLong	30RSol	31RExtDigLong	32RFlexDigLong
42.9	-0.004578	0.022278	0.012665	0.00885	-0.015106	0.0383	-0.0383	0.001678	0.015106	0.033417	-0.018005	-0.013275	0.043182	0.071106	0.010986	-0.073547	0.015259	-0.034332	0.87585	0.071564	0.11581	-0.05188	0.16724	-0.007935	0.018311	-0.001373	0.32318	-0.008087	0.053101	-0.035095	-0.001984	0.18692
42.901	-0.000458	-0.005188	-0.023193	-0.003967	-0.023193	0.015717	-0.048218	-0.002136	0.02533	-0.005646	-0.014191	-0.023193	-0.015717	0.16907	0.003662	-0.070648	0.007629	-0.14664	0.075226	0.088654	0.10864	-0.080261	0.20401	-0.037079	0.013428	-0.001068	-0.06134	-0.002594	-0.00351	-0.039978	0.000763	0.003815
42.902	-0.005035	-0.029602	-0.055389	0.010986	0.016785	0.0177	-0.036621	-0.000458	0.031586	-0.020447	0.007782	-0.01297	-0.053406	0.19241	0.000153	0.020905	0.007782	-0.12329	-0.35309	0.051727	0.10757	-0.071259	0.25559	-0.034943	0.002289	0.00061	-0.25543	-0.007324	-0.045319	-0.030823	0.000916	-0.068359
42.903	0.003052	-0.065613	-0.0354	0.00061	0.041046	0.003815	-0.04837	0.002899	0.019073	-0.012817	0.003662	-0.027313	-0.046234	0.20889	0.00946	0.018463	0.011292	-0.1239	-0.024872	-0.038757	0.096588	-0.084686	0.30395	-0.035095	-0.003815	-0.001068	-0.1767	-0.008545	-0.23743	-0.033417	0.007324	-0.088959
42.904	0.00473	-0.080719	-0.055084	-0.000153	0.001068	-0.020447	-0.065308	0.006409	0.012817	0.01236	-0.011444	-0.027924	-0.081787	-0.004883	0.006256	-0.091858	0.012207	-0.11475	0.20859	-0.1181	0.097809	-0.061035	0.26291	-0.073853	0.006866	-0.009766	-0.17624	-0.010681	-0.29541	0.007935	0	-0.056
42.905	0.005493	-0.063934	-0.061188	0.006714	-0.018768	-0.062561	-0.047607	0.005341	-0.001831	0.024719	-0.014038	-0.021515	0.056152	-0.20081	-0.059052	-0.021667	0.005951	-0.052338	0.1358	-0.064392	0.097504	-0.046692	0.13275	-0.006714	0.027466	-0.01297	-0.13977	-0.007629	-0.19226	0.10544	0.000305	-0.12039
42.906	0.008545	-0.12924	-0.080872	0.014496	-0.037537	-0.078735	-0.037842	0.005646	-0.002441	0.00824	-0.002136	-0.00824	0.06012	-0.088806	0.011902	0.005341	0.011139	-0.094604	0.19226	-0.025024	0.093079	-0.057068	0.010681	0.059662	0.041656	-0.014801	0.093689	-0.007172	-0.10757	0.041962	0.018005	-0.18402
42.907	0.01358	-0.088654	-0.053101	-0.008545	0.005341	-0.064392	-0.025177	0.006104	0.000916	0.00946	0.025024	0.005341	-0.006256	-0.016632	0.018768	0.005188	0.009308	-0.11734	0.021057	-0.084534	0.09079	-0.068817	0.14526	0.067444	0.025024	-0.007935	0.11459	-0.009003	-0.067902	-0.043793	0.006256	-0.13641
42.908	0.007935	-0.083618	-0.051727	-0.002747	-0.003967	-0.029449	-0.034485	0.005035	-0.004425	0.007782	0.014343	-0.012665	-0.13351	0.002441	0.018311	0.000153	0.008392	-0.10407	-0.15762	-0.11887	0.09613	-0.050964	0.12711	0.020599	0.003204	0.001526	0.15366	-0.010376	0.060883	-0.058594	0.004272	-0.07782
42.909	0.002289	-0.031738	-0.12329	0.00946	-0.003204	-0.049133	-0.016327	0.007935	0.001831	0.007477	0.000305	-0.018616	-0.2861	-0.007935	-0.00061	0.005188	0.00885	-0.11765	-0.017242	-0.083923	0.092773	-0.068359	-0.005188	0.028687	0.003052	0.001526	0.48279	-0.009003	0.053101	-0.027924	0.003967	-0.039825
42.91	0.000458	0.003357	-0.11124	0.008698	0.016479	-0.04364	-0.016022	0.0177	0.020905	-0.049896	0.021057	-0.014191	-0.036163	-0.010986	0.030212	0.007172	0.004272	-0.076904	0.24155	0.049744	0.092773	-0.054626	-0.062714	-0.018463	-0.010986	-0.013428	0.51117	-0.010529	0.03952	0.04303	0.002899	-0.017242
42.911	-0.002136	0.035553	-0.085449	0.02121	0.031433	0.032806	-0.031586	0.009003	0.012054	-0.14801	0.007629	-0.020294	0.12421	0.10773	0.089874	0.008392	0.010376	-0.061188	0.17502	0.18173	0.079498	-0.059052	-0.16861	-0.076904	-0.010834	-0.012207	0.19745	-0.01236	-0.10803	0.05661	0.000305	0.008087
42.912	0.001068	0.036469	0.029297	0.005798	0.03067	0.12253	-0.034637	0.008392	0.00885	-0.14038	0	-0.010834	0.37094	0.13321	0.021362	0.012512	0.009613	-0.076141	0.23025	0.090637	0.072784	-0.079193	-0.14069	-0.10513	0.003357	-0.012207	0.52307	-0.014954	-0.20508	0.024872	0.00351	0.014801
42.913	-0.004425	0.057678	0.046692	0.007629	0.019836	0.11688	-0.035095	0.011444	-0.010681	-0.10956	0.016174	-0.016022	0.023041	0.039063	-0.043945	0.007324	-0.001678	-0.10559	0.038452	-0.080261	0.064545	-0.079956	-0.11154	-0.10208	0.005493	-0.011597	0.15869	-0.014343	0.066376	0.049133	0.001984	0.002289
42.914	0.005035	0.041809	0.040894	0.020599	0.024414	0.069733	-0.05661	0.005951	-0.023956	-0.10834	0.001068	-0.014038	0.2269	-0.006714	-0.06897	-0.000153	0.008545	-0.091248	-0.012054	-0.20065	0.070038	-0.064392	-0.019989	-0.067291	0.002747	-0.010071	0.091095	-0.011292	0.070343	0.034485	0.001526	-0.061951
42.915	0.007019	0.10346	-0.080261	0.014496	-0.007782	0.082245	-0.034332	-0.01297	0.001831	-0.085754	0.003815	-0.014191	-0.018768	0.028687	-0.030975	0.006409	0.010071	-0.075378	-0.097504	-0.26596	0.066528	-0.074463	0.052795	-0.097504	0.016174	-0.00824	0.11139	-0.011749	-0.011139	-0.053558	0.000763	-0.06897
42.916	0.006409	0.06073	-0.038452	0.022278	-0.015564	0.062103	-0.012665	-0.011139	0.012817	-0.075989	0.010376	-0.024567	-0.11429	-0.015106	0.030518	0.001526	0.014343	-0.04715	0.43732	-0.076599	0.059204	-0.092468	0.11871	-0.030518	0.023193	-0.005341	-0.5426	-0.00946	-0.065765	-0.18982	0.003357	-0.075989
42.917	0.010376	0.054932	0.049896	0.045624	-0.03006	0.021973	-0.006866	-0.001221	-0.003662	-0.033264	0.006561	-0.014648	0.081329	-0.13886	0.010223	0.011597	0.020752	-0.14038	0.39261	0.16861	0.061188	-0.083313	0.20828	-0.055847	0.048676	-0.005493	-0.89554	-0.011597	0.041351	-0.18768	0.002594	-0.080414
42.918	0.011749	0.078735	-0.010986	-0.012054	-0.049133	-0.095673	0.011292	-0.003052	0.001831	0.011902	0.006104	-0.012512	0.67688	-0.074158	0.011902	0.015564	0.008087	-0.11505	0.030518	0.30441	0.054321	-0.073853	0.20569	-0.013123	0.0354	0.001373	-0.45898	-0.014648	0.10819	-0.14893	0.004425	-0.057373
